<?xml version="1.0" encoding="utf-8"?>
<!-- Generator: Adobe Illustrator 24.1.3, SVG Export Plug-In . SVG Version: 6.00 Build 0)  -->
<svg version="1.1" id="Layer_1" xmlns="http://www.w3.org/2000/svg" xmlns:xlink="http://www.w3.org/1999/xlink" x="0px" y="0px"
	 viewBox="0 0 40 40" style="enable-background:new 0 0 40 40;" xml:space="preserve">
<style type="text/css">
	.st0{fill-rule:evenodd;clip-rule:evenodd;fill:#FFFFFF;}
</style>
<g>
	<path class="st0" d="M24,7h2c1.1,0,2,0.9,2,2v22c0,1.1-0.9,2-2,2h-2c-1.1,0-2-0.9-2-2V9C22,7.9,22.9,7,24,7z"/>
	<path class="st0" d="M14,7h2c1.1,0,2,0.9,2,2v22c0,1.1-0.9,2-2,2h-2c-1.1,0-2-0.9-2-2V9C12,7.9,12.9,7,14,7z"/>
</g>
</svg>
