<?xml version="1.0" encoding="utf-8"?>
<!-- Generator: Adobe Illustrator 24.1.3, SVG Export Plug-In . SVG Version: 6.00 Build 0)  -->
<svg version="1.1" id="Layer_1" xmlns="http://www.w3.org/2000/svg" xmlns:xlink="http://www.w3.org/1999/xlink" x="0px" y="0px"
	 viewBox="0 0 40 40" style="enable-background:new 0 0 40 40;" xml:space="preserve">
<style type="text/css">
	.st0{fill:#FFFFFF;}
</style>
<g>
	<path class="st0" d="M30.61,9.39c-0.78-0.78-2.05-0.78-2.83,0c-0.75,0.75-0.78,1.93-0.1,2.72l0.1,0.11l0.2,0.21
		c4.09,4.31,4.03,11.12-0.2,15.35c-4.3,4.3-11.26,4.3-15.56,0C8,23.56,7.93,16.76,12,12.45V16c0,1.1,0.9,2,2,2s2-0.9,2-2V8
		c0-1.1-0.9-2-2-2H6C4.9,6,4,6.9,4,8s0.9,2,2,2h2.84c-5.28,5.89-5.11,14.94,0.55,20.61c5.86,5.86,15.36,5.86,21.21,0
		C36.46,24.75,36.46,15.25,30.61,9.39z"/>
</g>
</svg>
