<?xml version="1.0" encoding="utf-8"?>
<!-- Generator: Adobe Illustrator 24.1.3, SVG Export Plug-In . SVG Version: 6.00 Build 0)  -->
<svg version="1.1" id="Layer_1" xmlns="http://www.w3.org/2000/svg" xmlns:xlink="http://www.w3.org/1999/xlink" x="0px" y="0px"
	 viewBox="0 0 40 40" style="enable-background:new 0 0 40 40;" xml:space="preserve">
<style type="text/css">
	.st0{fill-rule:evenodd;clip-rule:evenodd;fill:#001755;}
</style>
<g>
	<path class="st0" d="M24.73,18.59L13.41,7.27c-0.78-0.78-2.05-0.78-2.83,0c-0.78,0.78-0.78,2.05,0,2.83l9.9,9.9l-9.9,9.9
		c-0.78,0.78-0.78,2.05,0,2.83c0.78,0.78,2.05,0.78,2.83,0l11.31-11.31C25.51,20.63,25.51,19.37,24.73,18.59z"/>
	<path class="st0" d="M33.73,18.59L22.41,7.27c-0.78-0.78-2.05-0.78-2.83,0c-0.78,0.78-0.78,2.05,0,2.83l9.9,9.9l-9.9,9.9
		c-0.78,0.78-0.78,2.05,0,2.83c0.78,0.78,2.05,0.78,2.83,0l11.31-11.31C34.51,20.63,34.51,19.37,33.73,18.59z"/>
</g>
</svg>
