<?xml version="1.0" encoding="utf-8"?>
<!-- Generator: Adobe Illustrator 24.1.3, SVG Export Plug-In . SVG Version: 6.00 Build 0)  -->
<svg version="1.1" id="Layer_1" xmlns="http://www.w3.org/2000/svg" xmlns:xlink="http://www.w3.org/1999/xlink" x="0px" y="0px"
	 viewBox="0 0 40 40" style="enable-background:new 0 0 40 40;" xml:space="preserve">
<style type="text/css">
	.st0{fill-rule:evenodd;clip-rule:evenodd;fill:#001755;}
</style>
<path class="st0" d="M22.83,20l7.78-7.78c0.78-0.78,0.78-2.05,0-2.83s-2.05-0.78-2.83,0L20,17.17l-7.78-7.78
	c-0.78-0.78-2.05-0.78-2.83,0s-0.78,2.05,0,2.83L17.17,20l-7.78,7.78c-0.78,0.78-0.78,2.05,0,2.83s2.05,0.78,2.83,0L20,22.83
	l7.78,7.78c0.78,0.78,2.05,0.78,2.83,0s0.78-2.05,0-2.83L22.83,20z"/>
</svg>
